[Header]
FileType HTR
DataType HTRS
FileVersion 1
NumSegments 22
NumFrames 6
DataFrameRate 24
EulerRotationOrder ZYX
CalibrationUnits mm
RotationUnits Degrees
GlobalAxisofGravity Y
BoneLengthAxis Y
ScaleFactor 1.0
[SegmentNames&Hierarchy]
reference	GLOBAL
Hips	reference
Spine	Hips
Spine1	Spine
Neck	Spine1
Head	Neck
LeftShoulder	Spine1
LeftArm	LeftShoulder
LeftForeArm	LeftArm
LeftHand	LeftForeArm
RightShoulder	Spine1
RightArm	RightShoulder
RightForeArm	RightArm
RightHand	RightForeArm
LeftUpLeg	Hips
LeftLeg	LeftUpLeg
LeftFoot	LeftLeg
LeftToeBase	LeftFoot
RightUpLeg	Hips
RightLeg	RightUpLeg
RightFoot	RightLeg
RightToeBase	RightFoot
[BasePosition]
reference	0	0	0	0	0	0	1
Hips	0	0	0	0	0	0	1
Spine	0	0	0	0	-0	90	1
Spine1	0	0	0	0	0	0	1
Neck	0	0	0	-7.352430803	-7.352430803	90	1
Head	0	0	0	0	-0	90	1
LeftShoulder	0	0	0	0	0	0	1
LeftArm	0	0	0	0	0	0	1
LeftForeArm	0	0	0	0	0	0	1
LeftHand	0	0	0	0	0	0	1
RightShoulder	0	0	0	0	-0	180	1
RightArm	0	0	0	0	-0	180	1
RightForeArm	0	0	0	0	-0	180	1
RightHand	0	0	0	0	-0	180	1
LeftUpLeg	0	0	0	0	-0	-90	1
LeftLeg	0	0	0	0	-0	-90	1
LeftFoot	0	0	0	66.57150701	-66.57150701	-90	1
LeftToeBase	0	0	0	0	-90	0	1
RightUpLeg	0	0	0	0	-0	-90	1
RightLeg	0	0	0	0	-0	-90	1
RightFoot	0	0	0	66.57150701	-66.57150701	-90	1
RightToeBase	0	0	0	0	-90	0	1
[reference]
1	0	0	0	0	-0	0	1.0
2	0	0	0	0	-0	0	1.0
3	0	0	0	0	-0	0	1.0
4	0	0	0	0	-0	0	1.0
5	0	0	0	0	-0	0	1.0
6	0	0	0	0	-0	0	1.0
[Hips]
1	6.071040154	8.396450043	0.9580200315	-1.190124512	-103.4248962	3.869354248	1.0
2	6.071040154	8.396450043	0.9580200315	-0.9636127353	-103.3211823	3.728490829	1.0
3	6.071040154	8.396450043	0.9580200315	-0.9345386624	-103.2112885	3.671613932	1.0
4	6.071040154	8.396450043	0.9580200315	-0.917016983	-103.1149902	3.654216766	1.0
5	6.071040154	8.396450043	0.9580200315	-0.8180394769	-103.1005707	3.656760216	1.0
6	6.071040154	8.396450043	0.9580200315	-0.5304828286	-103.1411591	3.417849064	1.0
[Spine]
1	0	0.7478299737	0	-13.17913246	1.281073451	-88.68205261	1.0
2	0	0.7478299737	0	-13.17858315	1.229187012	-88.78591156	1.0
3	0	0.7478299737	0	-13.1441803	1.15114522	-88.78224182	1.0
4	0	0.7478299737	0	-13.09523296	1.09211123	-88.7890625	1.0
5	0	0.7478299737	0	-13.14600849	1.098145247	-88.78010559	1.0
6	0	0.7478299737	0	-13.12195873	1.104270101	-88.82813263	1.0
[Spine1]
1	0	2.049309969	0	11.29980946	0.5367801785	-1.697550535	1.0
2	0	2.049309969	0	11.19032478	0.5223498344	-1.647289038	1.0
3	0	2.049309969	0	11.18398094	0.5083921552	-1.771600485	1.0
4	0	2.049309969	0	11.10622311	0.4878617823	-1.769431353	1.0
5	0	2.049309969	0	11.10360909	0.4974735677	-1.843228698	1.0
6	0	2.049309969	0	11.12680244	0.5016679764	-1.843017936	1.0
[Neck]
1	0	2.231709957	0	2.34742713	10.24300861	-84.65918732	1.0
2	0	2.231709957	0	2.526592255	10.32026577	-84.71343994	1.0
3	0	2.231709957	0	2.654492855	10.3975544	-84.63198853	1.0
4	0	2.231709957	0	2.70175457	10.4437027	-84.60774231	1.0
5	0	2.231709957	0	2.810568094	10.4835825	-84.51304626	1.0
6	0	2.231709957	0	2.696450472	10.45250702	-84.64387512	1.0
[Head]
1	0	1.413589954	0.1823999882	-8.141606331	3.773306608	-96.85222626	1.0
2	0	1.413589954	0.1823999882	-8.293105125	3.84534812	-96.87944794	1.0
3	0	1.413589954	0.1823999882	-8.255853653	3.937612057	-96.86283875	1.0
4	0	1.413589954	0.1823999882	-8.227773666	3.994938135	-96.94225311	1.0
5	0	1.413589954	0.1823999882	-8.311312675	4.049609661	-97.06733704	1.0
6	0	1.413589954	0.1823999882	-8.222037315	3.995624781	-96.85241699	1.0
[LeftShoulder]
1	0.3649300039	1.825889945	-0.04271000251	-10.98942852	-7.218764305	3.503943443	1.0
2	0.3649300039	1.825889945	-0.04271000251	-11.34627342	-7.226084232	3.58974576	1.0
3	0.3649300039	1.825889945	-0.04271000251	-11.47315788	-7.154405594	3.73750186	1.0
4	0.3649300039	1.825889945	-0.04271000251	-11.51451111	-7.1751194	3.712509155	1.0
5	0.3649300039	1.825889945	-0.04271000251	-12.01283455	-7.207688332	3.864236116	1.0
6	0.3649300039	1.825889945	-0.04271000251	-12.30970669	-7.236599922	3.798769951	1.0
[LeftArm]
1	1.24003005	0	0	38.06949615	7.753939629	-81.42308044	1.0
2	1.24003005	0	0	38.05340958	7.909948826	-81.18743896	1.0
3	1.24003005	0	0	38.04421616	7.763765812	-80.95435333	1.0
4	1.24003005	0	0	38.21277618	7.581933022	-80.67550659	1.0
5	1.24003005	0	0	38.18743515	7.860314369	-80.56391907	1.0
6	1.24003005	0	0	38.4928093	7.969568253	-80.45431519	1.0
[LeftForeArm]
1	2.847419977	0	0	-8.942182541	-11.4949894	-5.285303116	1.0
2	2.847419977	0	0	-8.856541634	-11.30839729	-5.155863762	1.0
3	2.847419977	0	0	-8.792293549	-11.1468029	-5.011542797	1.0
4	2.847419977	0	0	-8.829801559	-11.17965412	-4.83490181	1.0
5	2.847419977	0	0	-8.72395134	-11.26559353	-4.747352123	1.0
6	2.847419977	0	0	-8.803002357	-11.25810623	-4.496449471	1.0
[LeftHand]
1	2.258270025	0	0	-8.861467361	-9.807304382	-7.139884949	1.0
2	2.258270025	0	0	-8.80092144	-9.681735039	-6.683936119	1.0
3	2.258270025	0	0	-8.715126038	-10.0586729	-6.43374157	1.0
4	2.258270025	0	0	-8.813999176	-9.49905014	-5.8872962	1.0
5	2.258270025	0	0	-8.720166206	-9.672278404	-5.580524921	1.0
6	2.258270025	0	0	-8.817152977	-9.522485733	-5.153307438	1.0
[RightShoulder]
1	-0.3646599948	1.825889945	-0.04271000251	-8.413031578	6.476748466	176.7077179	1.0
2	-0.3646599948	1.825889945	-0.04271000251	-8.466659546	6.353106499	176.5891418	1.0
3	-0.3646599948	1.825889945	-0.04271000251	-8.460069656	6.252610207	176.6408386	1.0
4	-0.3646599948	1.825889945	-0.04271000251	-8.3800354	6.254132748	176.675766	1.0
5	-0.3646599948	1.825889945	-0.04271000251	-8.209012985	6.286128044	176.7920074	1.0
6	-0.3646599948	1.825889945	-0.04271000251	-8.552890778	6.270730495	176.6457367	1.0
[RightArm]
1	-1.24003005	0	0	42.54276657	-3.664872885	-96.09627533	1.0
2	-1.24003005	0	0	42.70124054	-3.763863325	-95.78300476	1.0
3	-1.24003005	0	0	42.76781845	-3.75480032	-95.59065247	1.0
4	-1.24003005	0	0	42.82247162	-3.720517635	-95.48558807	1.0
5	-1.24003005	0	0	43.21273041	-3.600851536	-95.44558716	1.0
6	-1.24003005	0	0	43.37267303	-3.88661623	-95.26537323	1.0
[RightForeArm]
1	-2.847419977	0	0	-0.4969536364	13.19769764	179.7414246	1.0
2	-2.847419977	0	0	-0.678360939	13.17245483	179.5590363	1.0
3	-2.847419977	0	0	-0.7650994062	13.25754738	179.4722595	1.0
4	-2.847419977	0	0	-0.8400854468	13.39864445	179.4502106	1.0
5	-2.847419977	0	0	-1.043296576	13.4397707	179.2632751	1.0
6	-2.847419977	0	0	-1.037771106	13.48198128	179.2738342	1.0
[RightHand]
1	-2.258270025	0	0	-0.7667584419	7.144333839	175.2070313	1.0
2	-2.258270025	0	0	-0.918915987	7.132270813	175.3280487	1.0
3	-2.258270025	0	0	-0.9946948886	7.162461281	175.3568726	1.0
4	-2.258270025	0	0	-1.06779778	7.226657391	175.3771973	1.0
5	-2.258270025	0	0	-1.257914782	7.319949627	175.2936401	1.0
6	-2.258270025	0	0	-1.254273415	7.354418755	175.3019409	1.0
[LeftUpLeg]
1	0.9119900465	0	0	4.819871426	8.826470375	91.50966644	1.0
2	0.9119900465	0	0	4.771852016	8.731590271	91.49216461	1.0
3	0.9119900465	0	0	4.839734077	8.694608688	91.52610779	1.0
4	0.9119900465	0	0	4.923383713	8.694105148	91.60754395	1.0
5	0.9119900465	0	0	4.843846798	8.770260811	91.69083405	1.0
6	0.9119900465	0	0	4.883498669	8.837898254	91.67753601	1.0
[LeftLeg]
1	0	-4.371409893	0	2.163895845	-2.837227345	88.79523468	1.0
2	0	-4.371409893	0	2.131161213	-2.890731096	88.835495	1.0
3	0	-4.371409893	0	2.119525433	-2.860009909	88.81807709	1.0
4	0	-4.371409893	0	2.082077026	-2.92380023	88.78416443	1.0
5	0	-4.371409893	0	2.174781561	-2.956722736	88.6651001	1.0
6	0	-4.371409893	0	2.160314083	-2.965757847	88.77854919	1.0
[LeftFoot]
1	0	-3.918009996	0	-103.9365234	112.0836029	-44.98632813	1.0
2	0	-3.918009996	0	-103.8396454	112.0257645	-44.9543457	1.0
3	0	-3.918009996	0	-103.955452	111.9849548	-45.08758926	1.0
4	0	-3.918009996	0	-104.0562439	111.9311371	-45.16236496	1.0
5	0	-3.918009996	0	-103.9787292	111.8842392	-45.00640869	1.0
6	0	-3.918009996	0	-104.2834549	111.7446976	-45.34857559	1.0
[LeftToeBase]
1	0	-0.5927900076	1.367989898	0	0	0	1.0
2	0	-0.5927900076	1.367989898	0	0	0	1.0
3	0	-0.5927900076	1.367989898	0	0	0	1.0
4	0	-0.5927900076	1.367989898	0	0	0	1.0
5	0	-0.5927900076	1.367989898	0	0	0	1.0
6	0	-0.5927900076	1.367989898	0	0	0	1.0
[RightUpLeg]
1	-0.9119900465	0	0	7.694692612	-14.76972485	92.4668045	1.0
2	-0.9119900465	0	0	7.642413139	-14.84543037	92.49086761	1.0
3	-0.9119900465	0	0	7.7735672	-14.92906761	92.48776245	1.0
4	-0.9119900465	0	0	7.825247288	-14.79582119	92.51132965	1.0
5	-0.9119900465	0	0	7.749116898	-14.70216656	92.57759094	1.0
6	-0.9119900465	0	0	7.817874908	-14.51027298	92.54151154	1.0
[RightLeg]
1	0	-4.371409893	0	-2.287869215	-6.106906891	91.71546936	1.0
2	0	-4.371409893	0	-2.261077166	-6.293384075	91.69418335	1.0
3	0	-4.371409893	0	-2.356684923	-6.125077248	91.70187378	1.0
4	0	-4.371409893	0	-2.301697254	-6.40790081	91.76138306	1.0
5	0	-4.371409893	0	-2.244077444	-6.517574787	91.76548004	1.0
6	0	-4.371409893	0	-2.296678305	-6.4355793	91.90991974	1.0
[RightFoot]
1	0	-3.918009996	0	39.36522675	66.85707855	90.21762085	1.0
2	0	-3.918009996	0	39.80895996	66.91699219	90.71206665	1.0
3	0	-3.918009996	0	39.43039703	66.86042023	90.28005981	1.0
4	0	-3.918009996	0	39.40556717	66.93849182	90.37290955	1.0
5	0	-3.918009996	0	39.37578201	66.96832275	90.41055298	1.0
6	0	-3.918009996	0	38.59784317	67.00051117	89.61502838	1.0
[RightToeBase]
1	0	-0.5927900076	1.367989898	0	0	0	1.0
2	0	-0.5927900076	1.367989898	0	0	0	1.0
3	0	-0.5927900076	1.367989898	0	0	0	1.0
4	0	-0.5927900076	1.367989898	0	0	0	1.0
5	0	-0.5927900076	1.367989898	0	0	0	1.0
6	0	-0.5927900076	1.367989898	0	0	0	1.0
[EndOfFile]
